<svg width="236" height="40" viewBox="0 0 236 40" fill="none" xmlns="http://www.w3.org/2000/svg">
<path d="M165.778 0H164.875V39.7539H165.778V0Z" fill="currentColor"/>
<path d="M177.618 11.4775H182.951V18.7306H182.047V12.212H178.431V18.7306H177.527V11.4775H177.618Z" fill="currentColor"/>
<path d="M184.124 15.9748C184.124 15.1485 184.395 14.5058 184.847 14.0467C185.299 13.5877 185.931 13.3123 186.564 13.3123C186.835 13.3123 187.016 13.3123 187.287 13.4041C187.468 13.4959 187.739 13.5877 187.92 13.6795C188.101 13.7713 188.282 13.9549 188.462 14.1385C188.643 14.3222 188.733 14.5976 188.824 14.873C188.914 15.1485 188.914 15.5157 188.914 15.8829V16.1584H185.027C185.027 16.801 185.208 17.2601 185.479 17.5355C185.751 17.811 186.203 17.9946 186.654 17.9946C187.468 17.9946 187.92 17.7192 188.01 17.0765H188.824C188.733 17.6273 188.462 17.9946 188.101 18.27C187.739 18.5454 187.197 18.7291 186.564 18.7291C185.841 18.7291 185.208 18.4536 184.756 17.9946C184.395 17.5355 184.124 16.8929 184.124 15.9748ZM188.101 15.5157C188.01 14.5058 187.558 13.9549 186.654 13.9549C186.203 13.9549 185.931 14.0467 185.66 14.3222C185.389 14.5976 185.208 14.9648 185.118 15.4239H188.101V15.5157Z" fill="currentColor"/>
<path d="M190.089 13.4042H190.903V15.6076H193.434V13.4042H194.247V18.7292H193.434V16.3421H190.903V18.7292H190.089V13.4042Z" fill="currentColor"/>
<path d="M195.423 15.9749C195.423 15.6076 195.514 15.2404 195.604 14.8732C195.695 14.5059 195.875 14.2305 196.146 14.0469C196.418 13.7714 196.598 13.5878 196.96 13.496C197.231 13.4042 197.593 13.3124 197.954 13.3124C198.226 13.3124 198.497 13.3124 198.768 13.4042C199.039 13.496 199.22 13.5878 199.491 13.6796C199.672 13.8632 199.853 14.0469 200.033 14.2305C200.214 14.5059 200.214 14.7813 200.305 15.0568H199.491C199.401 14.6895 199.31 14.3223 199.039 14.1387C198.768 13.955 198.497 13.8632 198.045 13.8632C197.593 13.8632 197.141 14.0469 196.87 14.4141C196.598 14.7813 196.418 15.2404 196.418 15.8831V15.9749C196.418 16.6175 196.598 17.0766 196.87 17.4438C197.141 17.8111 197.593 17.9947 198.135 17.9947C198.497 17.9947 198.858 17.9029 199.129 17.6275C199.401 17.4438 199.581 17.0766 199.581 16.7094H200.305C200.214 17.2602 200.033 17.7193 199.581 18.1783C199.129 18.5456 198.677 18.7292 198.045 18.7292C197.322 18.7292 196.689 18.4538 196.237 17.9947C195.695 17.5357 195.423 16.893 195.423 15.9749Z" fill="currentColor"/>
<path d="M201.39 13.4042H202.203V17.4438L204.825 13.4042H205.638V18.7292H204.825V14.6895L202.203 18.7292H201.39V13.4042Z" fill="currentColor"/>
<path d="M206.814 15.9748C206.814 15.1485 207.086 14.5058 207.538 14.0467C207.99 13.5877 208.622 13.3123 209.345 13.3123C210.069 13.3123 210.701 13.5877 211.153 14.0467C211.605 14.5058 211.876 15.1485 211.876 15.9748V16.0666C211.876 16.8929 211.605 17.5355 211.153 17.9946C210.701 18.4536 210.069 18.7291 209.345 18.7291C208.622 18.7291 207.99 18.4536 207.538 17.9946C207.086 17.4437 206.814 16.801 206.814 15.9748ZM208.08 17.5355C208.351 17.9028 208.803 18.0864 209.345 18.0864C209.888 18.0864 210.249 17.9028 210.611 17.5355C210.882 17.1683 211.063 16.7092 211.063 16.0666V15.9748C211.063 15.3321 210.882 14.873 210.611 14.5058C210.34 14.1385 209.888 13.9549 209.345 13.9549C208.803 13.9549 208.441 14.1385 208.08 14.5058C207.809 14.873 207.628 15.3321 207.628 15.9748V16.0666C207.628 16.7092 207.809 17.1683 208.08 17.5355Z" fill="currentColor"/>
<path d="M213.049 13.4042H213.862V15.6076H216.393V13.4042H217.207V18.7292H216.393V16.3421H213.862V18.7292H213.049V13.4042Z" fill="currentColor"/>
<path d="M218.745 13.4042H219.558V15.6076H222.089V13.4042H222.903V18.7292H222.089V16.3421H219.558V18.7292H218.745V13.4042Z" fill="currentColor"/>
<path d="M224.439 13.4042H225.253V15.2404H226.157C226.428 15.2404 226.699 15.2404 226.97 15.3322C227.242 15.424 227.422 15.5158 227.603 15.6076C227.784 15.6994 227.965 15.8831 228.055 16.1585C228.145 16.3421 228.236 16.6175 228.236 16.893C228.236 17.1684 228.145 17.4438 228.055 17.6274C227.965 17.8111 227.784 17.9947 227.603 18.1783C227.422 18.2701 227.242 18.4537 226.97 18.4537C226.699 18.5456 226.518 18.5456 226.157 18.5456H224.439V13.4042ZM226.247 17.9947C226.609 17.9947 226.88 17.9029 227.061 17.7193C227.242 17.5356 227.332 17.2602 227.332 16.893C227.332 16.5257 227.242 16.3421 227.061 16.1585C226.88 15.9749 226.609 15.8831 226.247 15.8831H225.253V17.9947H226.247ZM228.959 13.4042H229.773V18.7292H228.959V13.4042Z" fill="currentColor"/>
<path d="M231.308 13.4041H232.122V17.4438L234.743 13.4041H235.557V18.7291H234.743V14.6895L232.122 18.7291H231.308V13.4041ZM232.845 11.1089C232.845 11.2925 232.935 11.4761 233.026 11.6597C233.116 11.8434 233.297 11.8434 233.478 11.8434C233.658 11.8434 233.839 11.7516 233.929 11.6597C234.02 11.4761 234.11 11.3843 234.11 11.1089H234.833C234.833 11.4761 234.653 11.8434 234.381 12.027C234.11 12.3024 233.839 12.3942 233.478 12.3942C233.116 12.3942 232.845 12.3024 232.574 12.027C232.302 11.7516 232.212 11.4761 232.212 11.1089H232.845Z" fill="currentColor"/>
<path d="M177.165 26.074C177.165 25.6149 177.255 25.2477 177.345 24.9723C177.526 24.605 177.707 24.3296 177.888 24.146C178.159 23.9624 178.43 23.7787 178.701 23.5951C179.063 23.5033 179.334 23.4115 179.786 23.4115V20.9326H180.599V23.4115C180.961 23.4115 181.323 23.5033 181.594 23.5951C181.955 23.6869 182.226 23.8705 182.407 24.146C182.678 24.3296 182.859 24.605 182.95 24.9723C183.13 25.3395 183.13 25.7068 183.13 26.074V26.1658C183.13 26.6249 183.04 26.9921 182.95 27.2675C182.769 27.6348 182.588 27.9102 182.407 28.0938C182.136 28.2774 181.865 28.4611 181.594 28.6447C181.232 28.7365 180.961 28.8283 180.509 28.8283V30.5727H179.786V28.8283C179.424 28.8283 179.063 28.7365 178.792 28.6447C178.43 28.5529 178.159 28.3693 177.978 28.0938C177.707 27.9102 177.526 27.6348 177.436 27.2675C177.255 26.9921 177.165 26.6249 177.165 26.074ZM178.52 27.6348C178.882 28.002 179.334 28.1856 179.876 28.1856V24.0542C179.334 24.0542 178.882 24.2378 178.52 24.605C178.159 24.9723 177.978 25.4313 177.978 26.074V26.1658C177.978 26.8085 178.159 27.2675 178.52 27.6348ZM181.955 27.6348C182.317 27.2675 182.498 26.8085 182.498 26.1658V26.074C182.498 25.4313 182.317 24.9723 181.955 24.605C181.594 24.2378 181.142 24.0542 180.599 24.0542V28.1856C181.142 28.1856 181.594 28.002 181.955 27.6348Z" fill="currentColor"/>
<path d="M184.124 26.0739C184.124 25.2476 184.395 24.6049 184.847 24.1459C185.299 23.6868 185.931 23.4114 186.655 23.4114C187.378 23.4114 188.01 23.6868 188.462 24.1459C188.914 24.6049 189.185 25.2476 189.185 26.0739V26.1657C189.185 26.992 188.914 27.6347 188.462 28.0937C188.01 28.5528 187.378 28.8282 186.655 28.8282C185.931 28.8282 185.299 28.5528 184.847 28.0937C184.395 27.5428 184.124 26.9002 184.124 26.0739ZM185.479 27.6347C185.751 28.0019 186.203 28.1855 186.745 28.1855C187.287 28.1855 187.649 28.0019 188.01 27.6347C188.282 27.2674 188.462 26.8084 188.462 26.1657V26.0739C188.462 25.4312 188.282 24.9722 188.01 24.6049C187.739 24.2377 187.287 24.054 186.745 24.054C186.203 24.054 185.841 24.2377 185.479 24.6049C185.208 24.9722 185.027 25.4312 185.027 26.0739V26.1657C185.027 26.8084 185.118 27.2674 185.479 27.6347Z" fill="currentColor"/>
<path d="M190.452 23.5033H191.266V25.7067H193.797V23.5033H194.61V28.8283H193.797V26.4412H191.266V28.8283H190.452V23.5033Z" fill="currentColor"/>
<path d="M195.876 28.0938C195.966 28.0938 195.966 28.002 196.057 28.002C196.147 28.002 196.147 27.9102 196.237 27.8184C196.237 27.7266 196.328 27.6348 196.328 27.6348C196.328 27.5429 196.418 27.4511 196.418 27.3593C196.418 27.2675 196.418 27.1757 196.508 27.0839C196.508 26.9921 196.508 26.9003 196.508 26.7167C196.599 26.3494 196.599 25.8904 196.599 25.3395C196.599 24.7886 196.689 24.3296 196.689 24.0542V23.5033H200.124V28.0938H200.938V30.1136H200.305L200.215 28.8283H196.237L196.147 30.1136H195.514V28.0938H195.876ZM199.311 28.0938V24.2378H197.412C197.412 25.1559 197.322 25.9822 197.232 26.8085C197.141 27.4511 197.051 27.9102 196.87 28.1856H199.311V28.0938Z" fill="currentColor"/>
<path d="M151.133 23.5035L153.303 26.166C151.043 28.553 148.241 29.1957 145.981 29.1957C143.811 29.1957 142.275 28.8285 140.919 28.1858C138.026 26.7168 136.58 23.7789 136.58 20.1983C136.58 14.7815 140.196 10.7418 145.529 10.7418C151.495 10.7418 154.387 15.2405 153.935 21.1164H140.376C140.467 22.5854 141.28 23.9625 142.456 24.697C143.45 25.3397 144.625 25.6151 146.162 25.6151C147.879 25.7069 149.596 25.0642 151.133 23.5035ZM140.557 17.9948H150.139C149.868 15.8832 148.15 14.047 145.438 14.047C142.546 14.047 140.828 16.0668 140.557 17.9948ZM49.4423 28.7366H54.3234L46.6401 19.6474L54.2331 11.1091H49.4423L43.6572 17.903H41.9398V11.1091H38.2337V28.6448H41.9398V21.6673H43.6572L49.4423 28.7366ZM65.4417 14.3224C62.2779 14.3224 60.1989 16.8013 60.1989 19.9229C60.1989 23.0444 62.2779 25.5233 65.4417 25.5233C68.6054 25.5233 70.594 23.1362 70.594 19.9229C70.594 16.8931 68.6958 14.3224 65.4417 14.3224ZM66.0744 10.7418C70.9556 10.7418 74.5712 14.5979 74.5712 19.9229C74.5712 25.156 71.0459 29.1957 66.0744 29.1957C63.7242 29.1957 61.826 28.3694 60.4701 26.9004V36.0815H56.6736V11.2009H60.3797V13.3125C61.826 11.5681 63.6338 10.7418 66.0744 10.7418ZM115.248 11.2009H99.7906V14.6897H105.666V28.7366H109.462V14.6897H115.338V11.2009H115.248ZM35.6123 11.2009H20.1553V14.6897H26.0308V28.7366H29.7369V14.6897H35.6123V11.2009ZM15.5453 20.0147C15.5453 16.7095 13.2855 14.3224 10.1218 14.3224C7.04851 14.3224 4.69831 16.7095 4.69831 20.0147C4.69831 23.3198 6.95811 25.7069 10.1218 25.7069C13.1952 25.7069 15.5453 23.3198 15.5453 20.0147ZM0.901855 20.0147C0.901855 14.7815 4.8791 10.8336 10.2122 10.8336C15.5453 10.8336 19.5226 14.7815 19.5226 20.0147C19.5226 25.2479 15.5453 29.2875 10.2122 29.2875C4.8791 29.2875 0.901855 25.2479 0.901855 20.0147ZM133.597 11.2009V28.7366H129.891V17.444L120.852 28.7366H117.869V11.2009H121.575V22.4935L130.614 11.2009H133.597ZM97.2596 28.7366H93.5535V11.2009H97.2596V28.7366ZM87.5877 22.769C87.5877 21.2082 86.5029 20.1065 85.0567 20.1065H81.2602V25.5233H85.0567C86.5029 25.5233 87.5877 24.3297 87.5877 22.769ZM91.3841 22.769C91.3841 26.2578 88.8531 28.7366 85.2375 28.7366H77.6445V11.2009H81.3506V16.8931H85.599C89.1243 16.8931 91.3841 19.1884 91.3841 22.769Z" fill="currentColor"/>
</svg>
