<svg width="80" height="80" viewBox="0 0 80 80" fill="none" xmlns="http://www.w3.org/2000/svg">
<path d="M53.0383 3.2975C58.3225 5.13549 63.377 8.12224 67.5125 12.4875C82.676 27.651 82.676 52.4639 67.5125 67.6274C52.349 82.7909 27.5361 82.7909 12.3726 67.6274C-2.79087 52.4639 -2.79087 27.651 12.3726 12.4875C19.7246 5.13549 30.2931 1.22975 39.9426 1V41.4359" stroke="#0A5C6D" stroke-width="2" stroke-miterlimit="10" stroke-linecap="round" stroke-linejoin="round"/>
<path d="M39.7131 59.5864C41.7433 59.5864 43.3891 57.9406 43.3891 55.9104C43.3891 53.8802 41.7433 52.2344 39.7131 52.2344C37.6829 52.2344 36.0371 53.8802 36.0371 55.9104C36.0371 57.9406 37.6829 59.5864 39.7131 59.5864Z" fill="#0A5C6D"/>
</svg>
