<svg width="40" height="40" viewBox="0 0 40 40" fill="none" xmlns="http://www.w3.org/2000/svg">
<path d="M19.6763 0.0922852C8.79538 0.0922852 0 9.03238 0 20.0923C0 31.1522 8.79538 40.0923 19.6763 40.0923C30.5571 40.0923 39.3525 31.1522 39.3525 20.0923C39.3525 9.03238 30.4665 0.0922852 19.6763 0.0922852ZM16.8654 28.5715L15.4146 32.9033C9.97414 31.06 6.34718 25.8066 6.34718 19.908C6.34718 14.0093 9.97414 8.84805 15.5053 6.91256L16.956 11.2444C13.3291 12.4425 10.9716 15.9448 10.9716 19.8158C10.8809 23.8711 13.2384 27.3734 16.8654 28.5715ZM23.6659 32.9955L22.3058 28.5715C26.0234 27.3734 28.4716 23.8711 28.4716 19.908C28.4716 15.9448 26.0234 12.5347 22.3965 11.3365L23.8473 6.91256C29.3784 8.75588 33.096 14.0093 33.096 19.908C33.0053 25.9909 29.197 31.2444 23.6659 32.9955Z" fill="currentColor"/>
</svg>
